<svg width="640" height="640" viewBox="0 0 640 640" fill="none" xmlns="http://www.w3.org/2000/svg">
<rect width="640" height="640" fill="#00B9CD"/>
<rect width="640" height="640" fill="url(#paint0_linear_128_17)"/>
<path d="M220.375 292C221.958 293.333 223.125 296 223.875 300C224.625 303.917 224.917 308.292 224.75 313.125C224.667 314.625 224.458 316.708 224.125 319.375C223.792 321.958 223.375 324.833 222.875 328C222.458 331.083 221.958 334.25 221.375 337.5C220.875 340.75 220.375 343.75 219.875 346.5C219.375 349.25 218.917 351.583 218.5 353.5C218.167 355.333 217.958 356.417 217.875 356.75C217.708 357.333 217.25 357.917 216.5 358.5C215.75 359.083 214.958 359.583 214.125 360C213.375 360.333 212.625 360.583 211.875 360.75C211.125 360.833 210.667 360.667 210.5 360.25C210.417 360 210.417 358.708 210.5 356.375C210.583 354.042 210.708 351.167 210.875 347.75C211.042 344.25 211.208 340.542 211.375 336.625C211.625 332.625 211.833 328.875 212 325.375C212.167 321.875 212.333 318.917 212.5 316.5C212.667 314 212.75 312.5 212.75 312C212.833 309.417 212.625 307.167 212.125 305.25C211.625 303.25 210.792 302.25 209.625 302.25C209.208 302.25 208.708 302.458 208.125 302.875C207.542 303.208 206.958 303.625 206.375 304.125C205.875 304.625 205.375 305.167 204.875 305.75C204.458 306.333 204.25 306.875 204.25 307.375C204.167 308.875 204.042 311.083 203.875 314C203.792 316.917 203.667 320.125 203.5 323.625C203.417 327.125 203.292 330.708 203.125 334.375C203.042 338.042 202.917 341.417 202.75 344.5C202.667 347.583 202.583 350.167 202.5 352.25C202.417 354.25 202.333 355.375 202.25 355.625C202.083 355.958 201.542 356.208 200.625 356.375C199.792 356.458 198.833 356.458 197.75 356.375C196.667 356.292 195.667 356.083 194.75 355.75C193.917 355.417 193.417 354.958 193.25 354.375C193.083 353.958 192.958 352.708 192.875 350.625C192.792 348.458 192.667 345.875 192.5 342.875C192.417 339.875 192.333 336.667 192.25 333.25C192.167 329.75 192.083 326.5 192 323.5C191.917 320.5 191.833 317.917 191.75 315.75C191.75 313.583 191.75 312.25 191.75 311.75C191.75 309.75 191.583 308.167 191.25 307C190.917 305.75 190.5 304.792 190 304.125C189.583 303.375 189.083 302.917 188.5 302.75C187.917 302.5 187.333 302.375 186.75 302.375C186.5 302.375 186.125 302.583 185.625 303C185.125 303.333 184.625 303.875 184.125 304.625C183.625 305.292 183.208 306.083 182.875 307C182.542 307.833 182.417 308.75 182.5 309.75C182.5 310.167 182.542 311.708 182.625 314.375C182.708 317.042 182.75 320.25 182.75 324C182.833 327.75 182.917 331.792 183 336.125C183.083 340.458 183.125 344.5 183.125 348.25C183.208 351.917 183.25 355.042 183.25 357.625C183.25 360.125 183.25 361.458 183.25 361.625C183.083 362.042 182.625 362.292 181.875 362.375C181.125 362.375 180.292 362.208 179.375 361.875C178.458 361.542 177.583 361.083 176.75 360.5C175.917 359.833 175.333 359.042 175 358.125C174.833 357.458 174.583 356 174.25 353.75C173.917 351.5 173.542 348.833 173.125 345.75C172.708 342.583 172.292 339.208 171.875 335.625C171.458 331.958 171.042 328.458 170.625 325.125C170.208 321.708 169.833 318.625 169.5 315.875C169.25 313.125 169.042 311.042 168.875 309.625C168.625 307.625 168.333 305.458 168 303.125C167.75 300.708 167.5 298.417 167.25 296.25C167.083 294 166.958 292.083 166.875 290.5C166.792 288.833 166.875 287.792 167.125 287.375C167.292 287.042 167.875 286.917 168.875 287C169.958 287.083 171.083 287.333 172.25 287.75C173.5 288.083 174.667 288.583 175.75 289.25C176.917 289.833 177.667 290.458 178 291.125C178.25 291.625 178.5 292.25 178.75 293C179.083 293.667 179.417 294.75 179.75 296.25C181.167 295.167 182.625 294.167 184.125 293.25C185.625 292.25 187.125 291.5 188.625 291C190.125 290.417 191.542 290.125 192.875 290.125C194.292 290.042 195.625 290.417 196.875 291.25C197.958 292.083 199 293.542 200 295.625C204 293.375 207.833 291.833 211.5 291C215.25 290.083 218.208 290.417 220.375 292ZM241 329.875C242.333 329.375 243.833 328.833 245.5 328.25C247.25 327.583 248.917 327 250.5 326.5C252.083 325.917 253.5 325.417 254.75 325C256 324.583 256.917 324.25 257.5 324C257.417 323.083 257.292 322.042 257.125 320.875C257.042 319.625 256.917 318.458 256.75 317.375C256.583 316.208 256.375 315.208 256.125 314.375C255.875 313.542 255.625 313.042 255.375 312.875C254.708 312.625 253.583 312.417 252 312.25C250.5 312 248.917 312.042 247.25 312.375C245.667 312.708 244.208 313.333 242.875 314.25C241.542 315.167 240.792 316.625 240.625 318.625C240.458 319.958 240.417 321.625 240.5 323.625C240.583 325.625 240.75 327.708 241 329.875ZM268.125 331.875C268.042 332.042 267.042 332.375 265.125 332.875C263.208 333.375 260.917 333.917 258.25 334.5C255.583 335 252.75 335.542 249.75 336.125C246.75 336.625 244.167 337.042 242 337.375C242.417 340.708 242.917 343.708 243.5 346.375C244.083 348.958 244.583 350.583 245 351.25C245.417 351.833 245.958 352.375 246.625 352.875C247.208 353.292 247.917 353.708 248.75 354.125C249.667 354.458 250.75 354.708 252 354.875C252.917 355.125 253.792 354.792 254.625 353.875C255.292 353.042 255.875 351.583 256.375 349.5C256.958 347.417 257.25 344.125 257.25 339.625C259.833 339.208 261.833 338.958 263.25 338.875C264.75 338.792 265.833 338.792 266.5 338.875C267.333 338.958 267.833 339.083 268 339.25C268.083 339.5 268.083 340.125 268 341.125C267.917 342.125 267.708 343.375 267.375 344.875C267.125 346.292 266.792 347.875 266.375 349.625C266.042 351.292 265.625 352.917 265.125 354.5C264.625 356 264.083 357.375 263.5 358.625C262.917 359.792 262.292 360.625 261.625 361.125C259.625 362.625 257.125 363.375 254.125 363.375C251.125 363.292 248.167 362.875 245.25 362.125C242.333 361.292 239.708 360.333 237.375 359.25C235.042 358.083 233.583 357.125 233 356.375C232.583 355.875 232.208 354.625 231.875 352.625C231.542 350.542 231.25 348.042 231 345.125C230.833 342.208 230.708 339 230.625 335.5C230.542 332 230.583 328.583 230.75 325.25C231 321.917 231.333 318.833 231.75 316C232.25 313.167 232.917 310.875 233.75 309.125C235 306.625 237.042 304.583 239.875 303C242.708 301.417 245.708 300.333 248.875 299.75C252.042 299.167 255.042 299.083 257.875 299.5C260.792 299.917 262.958 300.833 264.375 302.25C265.208 303.083 265.958 304.75 266.625 307.25C267.292 309.667 267.708 312.625 267.875 316.125C267.875 316.458 267.917 317.417 268 319C268.083 320.583 268.125 322.292 268.125 324.125C268.208 325.875 268.25 327.542 268.25 329.125C268.25 330.708 268.208 331.625 268.125 331.875ZM284 350.375C282.833 346.125 281.542 341.125 280.125 335.375C278.958 330.458 277.542 324.5 275.875 317.5C274.292 310.417 272.583 302.333 270.75 293.25C270.75 292.667 271.125 291.958 271.875 291.125C272.542 290.208 273.375 289.375 274.375 288.625C275.375 287.792 276.417 287.125 277.5 286.625C278.583 286.042 279.542 285.75 280.375 285.75C280.708 286.25 281.292 288.458 282.125 292.375C282.458 294.042 282.833 296.167 283.25 298.75C283.75 301.25 284.292 304.375 284.875 308.125C285.458 311.875 286.083 316.292 286.75 321.375C287.5 326.375 288.333 332.167 289.25 338.75C289.917 334.25 290.542 330 291.125 326C291.792 322 292.375 318.458 292.875 315.375C293.458 311.792 294 308.458 294.5 305.375C294.75 303.458 295.042 301.458 295.375 299.375C295.708 297.208 296.042 295.25 296.375 293.5C296.792 291.75 297.208 290.292 297.625 289.125C298.125 287.875 298.625 287.25 299.125 287.25C299.625 287.25 300.375 287.375 301.375 287.625C302.375 287.792 303.375 288.042 304.375 288.375C305.458 288.708 306.417 289.125 307.25 289.625C308.083 290.042 308.5 290.5 308.5 291C308.5 291.25 308.25 292.5 307.75 294.75C307.25 296.917 306.583 299.708 305.75 303.125C304.917 306.542 303.958 310.417 302.875 314.75C301.792 319 300.667 323.333 299.5 327.75C298.417 332.167 297.292 336.5 296.125 340.75C294.958 345 293.875 348.792 292.875 352.125C291.958 355.375 291.167 358.042 290.5 360.125C289.833 362.125 289.375 363.125 289.125 363.125C288.875 363.125 288.167 362 287 359.75C285.917 357.417 284.917 354.292 284 350.375ZM319.5 329.875C320.833 329.375 322.333 328.833 324 328.25C325.75 327.583 327.417 327 329 326.5C330.583 325.917 332 325.417 333.25 325C334.5 324.583 335.417 324.25 336 324C335.917 323.083 335.792 322.042 335.625 320.875C335.542 319.625 335.417 318.458 335.25 317.375C335.083 316.208 334.875 315.208 334.625 314.375C334.375 313.542 334.125 313.042 333.875 312.875C333.208 312.625 332.083 312.417 330.5 312.25C329 312 327.417 312.042 325.75 312.375C324.167 312.708 322.708 313.333 321.375 314.25C320.042 315.167 319.292 316.625 319.125 318.625C318.958 319.958 318.917 321.625 319 323.625C319.083 325.625 319.25 327.708 319.5 329.875ZM346.625 331.875C346.542 332.042 345.542 332.375 343.625 332.875C341.708 333.375 339.417 333.917 336.75 334.5C334.083 335 331.25 335.542 328.25 336.125C325.25 336.625 322.667 337.042 320.5 337.375C320.917 340.708 321.417 343.708 322 346.375C322.583 348.958 323.083 350.583 323.5 351.25C323.917 351.833 324.458 352.375 325.125 352.875C325.708 353.292 326.417 353.708 327.25 354.125C328.167 354.458 329.25 354.708 330.5 354.875C331.417 355.125 332.292 354.792 333.125 353.875C333.792 353.042 334.375 351.583 334.875 349.5C335.458 347.417 335.75 344.125 335.75 339.625C338.333 339.208 340.333 338.958 341.75 338.875C343.25 338.792 344.333 338.792 345 338.875C345.833 338.958 346.333 339.083 346.5 339.25C346.583 339.5 346.583 340.125 346.5 341.125C346.417 342.125 346.208 343.375 345.875 344.875C345.625 346.292 345.292 347.875 344.875 349.625C344.542 351.292 344.125 352.917 343.625 354.5C343.125 356 342.583 357.375 342 358.625C341.417 359.792 340.792 360.625 340.125 361.125C338.125 362.625 335.625 363.375 332.625 363.375C329.625 363.292 326.667 362.875 323.75 362.125C320.833 361.292 318.208 360.333 315.875 359.25C313.542 358.083 312.083 357.125 311.5 356.375C311.083 355.875 310.708 354.625 310.375 352.625C310.042 350.542 309.75 348.042 309.5 345.125C309.333 342.208 309.208 339 309.125 335.5C309.042 332 309.083 328.583 309.25 325.25C309.5 321.917 309.833 318.833 310.25 316C310.75 313.167 311.417 310.875 312.25 309.125C313.5 306.625 315.542 304.583 318.375 303C321.208 301.417 324.208 300.333 327.375 299.75C330.542 299.167 333.542 299.083 336.375 299.5C339.292 299.917 341.458 300.833 342.875 302.25C343.708 303.083 344.458 304.75 345.125 307.25C345.792 309.667 346.208 312.625 346.375 316.125C346.375 316.458 346.417 317.417 346.5 319C346.583 320.583 346.625 322.292 346.625 324.125C346.708 325.875 346.75 327.542 346.75 329.125C346.75 330.708 346.708 331.625 346.625 331.875ZM381.875 297.875C382.542 298.292 383.167 299.125 383.75 300.375C384.417 301.542 385 302.917 385.5 304.5C386.083 306 386.542 307.625 386.875 309.375C387.292 311.125 387.625 312.75 387.875 314.25C388.208 315.75 388.417 317.042 388.5 318.125C388.583 319.125 388.583 319.75 388.5 320C388.333 320.333 387.833 320.667 387 321C386.25 321.333 385.125 321.708 383.625 322.125C382.125 322.542 380.042 323 377.375 323.5C377.208 318.917 376.875 315.458 376.375 313.125C375.875 310.708 375.333 309 374.75 308C374.083 306.833 373.375 306.25 372.625 306.25C371.875 306.583 371.208 307 370.625 307.5C370.042 307.917 369.542 308.375 369.125 308.875C368.625 309.458 368.167 310.083 367.75 310.75C367.583 311 367.417 311.583 367.25 312.5C367.083 313.417 366.917 314.792 366.75 316.625C366.75 317.208 366.708 318.417 366.625 320.25C366.625 322.083 366.583 324.208 366.5 326.625C366.5 329.042 366.458 331.583 366.375 334.25C366.375 336.917 366.333 339.417 366.25 341.75C366.25 344 366.208 345.917 366.125 347.5C366.125 349.083 366.083 350 366 350.25C365.833 350.667 365.417 351.25 364.75 352C364.083 352.75 363.333 353.458 362.5 354.125C361.667 354.708 360.875 355.208 360.125 355.625C359.375 355.958 358.875 355.917 358.625 355.5C358.375 355.25 358.125 354.167 357.875 352.25C357.625 350.333 357.333 348 357 345.25C356.75 342.417 356.458 339.333 356.125 336C355.792 332.667 355.5 329.458 355.25 326.375C355 323.292 354.792 320.542 354.625 318.125C354.458 315.625 354.333 313.833 354.25 312.75C354.167 311.167 354.083 309.417 354 307.5C353.917 305.583 353.833 303.792 353.75 302.125C353.75 300.375 353.75 298.875 353.75 297.625C353.833 296.292 354 295.5 354.25 295.25C354.417 295 354.958 294.958 355.875 295.125C356.875 295.208 357.917 295.458 359 295.875C360.167 296.208 361.25 296.667 362.25 297.25C363.25 297.833 363.917 298.375 364.25 298.875C364.5 299.292 364.75 299.917 365 300.75C366.583 299.917 368.083 299.167 369.5 298.5C371 297.75 372.417 297.208 373.75 296.875C375.167 296.542 376.542 296.458 377.875 296.625C379.208 296.708 380.542 297.125 381.875 297.875ZM429.125 304.5C429.208 305.417 429.042 306.833 428.625 308.75C428.292 310.667 427.75 312.583 427 314.5C426.333 316.417 425.417 318.083 424.25 319.5C423.167 320.917 421.917 321.625 420.5 321.625C419.5 321.625 418.667 320.833 418 319.25C417.417 317.667 416.958 315.833 416.625 313.75C416.375 311.583 416.167 309.458 416 307.375C415.833 305.292 415.667 303.833 415.5 303C415.25 302.583 414.75 302.208 414 301.875C413.333 301.458 412.667 301.25 412 301.25C411.333 301.25 410.583 301.792 409.75 302.875C408.917 303.958 408.083 305.208 407.25 306.625C406.5 308.042 405.833 309.458 405.25 310.875C404.75 312.292 404.542 313.333 404.625 314C404.625 314.5 405.167 315.375 406.25 316.625C407.333 317.875 408.667 319.375 410.25 321.125C411.917 322.792 413.667 324.625 415.5 326.625C417.417 328.542 419.167 330.5 420.75 332.5C422.333 334.417 423.667 336.25 424.75 338C425.917 339.75 426.542 341.25 426.625 342.5C426.708 344 426.292 345.917 425.375 348.25C424.542 350.583 423.458 352.833 422.125 355C420.792 357.167 419.375 359.042 417.875 360.625C416.375 362.208 415.042 363.042 413.875 363.125C412.708 363.208 411 362.583 408.75 361.25C406.583 359.833 404.375 358.208 402.125 356.375C399.958 354.458 398 352.583 396.25 350.75C394.583 348.917 393.625 347.583 393.375 346.75C393.125 346 392.958 345 392.875 343.75C392.875 342.5 392.917 341.25 393 340C393.167 338.75 393.417 337.708 393.75 336.875C394.083 335.958 394.5 335.5 395 335.5C395.5 335.5 396.5 336.375 398 338.125C399.5 339.792 401.125 341.708 402.875 343.875C404.625 345.958 406.333 347.875 408 349.625C409.667 351.292 410.875 352.125 411.625 352.125C412.042 352.125 412.5 351.833 413 351.25C413.5 350.583 413.958 349.833 414.375 349C414.792 348.167 415.125 347.333 415.375 346.5C415.708 345.583 415.875 344.875 415.875 344.375C415.792 343.625 415.125 342.542 413.875 341.125C412.625 339.708 411.042 338.125 409.125 336.375C407.208 334.625 405.125 332.792 402.875 330.875C400.625 328.875 398.542 327 396.625 325.25C394.708 323.5 393.125 321.917 391.875 320.5C390.625 319.083 389.958 318 389.875 317.25C389.792 316.5 390.042 315.333 390.625 313.75C391.208 312.083 391.958 310.292 392.875 308.375C393.792 306.375 394.833 304.333 396 302.25C397.25 300.167 398.5 298.25 399.75 296.5C401 294.75 402.208 293.333 403.375 292.25C404.625 291.083 405.708 290.5 406.625 290.5C408.458 290.5 410.625 291 413.125 292C415.708 293 418.167 294.25 420.5 295.75C422.833 297.167 424.833 298.667 426.5 300.25C428.167 301.833 429.042 303.25 429.125 304.5ZM443.375 329.875C444.708 329.375 446.208 328.833 447.875 328.25C449.625 327.583 451.292 327 452.875 326.5C454.458 325.917 455.875 325.417 457.125 325C458.375 324.583 459.292 324.25 459.875 324C459.792 323.083 459.667 322.042 459.5 320.875C459.417 319.625 459.292 318.458 459.125 317.375C458.958 316.208 458.75 315.208 458.5 314.375C458.25 313.542 458 313.042 457.75 312.875C457.083 312.625 455.958 312.417 454.375 312.25C452.875 312 451.292 312.042 449.625 312.375C448.042 312.708 446.583 313.333 445.25 314.25C443.917 315.167 443.167 316.625 443 318.625C442.833 319.958 442.792 321.625 442.875 323.625C442.958 325.625 443.125 327.708 443.375 329.875ZM470.5 331.875C470.417 332.042 469.417 332.375 467.5 332.875C465.583 333.375 463.292 333.917 460.625 334.5C457.958 335 455.125 335.542 452.125 336.125C449.125 336.625 446.542 337.042 444.375 337.375C444.792 340.708 445.292 343.708 445.875 346.375C446.458 348.958 446.958 350.583 447.375 351.25C447.792 351.833 448.333 352.375 449 352.875C449.583 353.292 450.292 353.708 451.125 354.125C452.042 354.458 453.125 354.708 454.375 354.875C455.292 355.125 456.167 354.792 457 353.875C457.667 353.042 458.25 351.583 458.75 349.5C459.333 347.417 459.625 344.125 459.625 339.625C462.208 339.208 464.208 338.958 465.625 338.875C467.125 338.792 468.208 338.792 468.875 338.875C469.708 338.958 470.208 339.083 470.375 339.25C470.458 339.5 470.458 340.125 470.375 341.125C470.292 342.125 470.083 343.375 469.75 344.875C469.5 346.292 469.167 347.875 468.75 349.625C468.417 351.292 468 352.917 467.5 354.5C467 356 466.458 357.375 465.875 358.625C465.292 359.792 464.667 360.625 464 361.125C462 362.625 459.5 363.375 456.5 363.375C453.5 363.292 450.542 362.875 447.625 362.125C444.708 361.292 442.083 360.333 439.75 359.25C437.417 358.083 435.958 357.125 435.375 356.375C434.958 355.875 434.583 354.625 434.25 352.625C433.917 350.542 433.625 348.042 433.375 345.125C433.208 342.208 433.083 339 433 335.5C432.917 332 432.958 328.583 433.125 325.25C433.375 321.917 433.708 318.833 434.125 316C434.625 313.167 435.292 310.875 436.125 309.125C437.375 306.625 439.417 304.583 442.25 303C445.083 301.417 448.083 300.333 451.25 299.75C454.417 299.167 457.417 299.083 460.25 299.5C463.167 299.917 465.333 300.833 466.75 302.25C467.583 303.083 468.333 304.75 469 307.25C469.667 309.667 470.083 312.625 470.25 316.125C470.25 316.458 470.292 317.417 470.375 319C470.458 320.583 470.5 322.292 470.5 324.125C470.583 325.875 470.625 327.542 470.625 329.125C470.625 330.708 470.583 331.625 470.5 331.875Z" fill="white"/>
<defs>
<linearGradient id="paint0_linear_128_17" x1="3.72529e-06" y1="320" x2="640" y2="320" gradientUnits="userSpaceOnUse">
<stop stop-color="#F2DA00"/>
<stop offset="1" stop-color="#AEEC5E"/>
</linearGradient>
</defs>
</svg>
